<?xml version="1.0" encoding="utf-8"?>
<!-- Generator: Adobe Illustrator 21.1.0, SVG Export Plug-In . SVG Version: 6.00 Build 0)  -->
<svg version="1.1" id="Layer_1" xmlns="http://www.w3.org/2000/svg" xmlns:xlink="http://www.w3.org/1999/xlink" x="0px" y="0px"
	 viewBox="0 0 124.8 144" style="enable-background:new 0 0 124.8 144;" xml:space="preserve">
<style type="text/css">
	.st0{fill:#879EB2;}
	.st1{opacity:0.38;fill:#FFFFFF;enable-background:new    ;}
	.st2{fill:#FFFFFF;stroke:#FFFFFF;stroke-width:0.5;stroke-miterlimit:10;}
	.st3{fill:#FEFEFE;}
	.st4{fill:#828E8F;}
	.st5{fill:#2B3236;}
	.st6{fill:#FFFFFF;}
</style>
<g id="Layer_1_1_">
	<g>
		<g>
			<path class="st0" d="M124.8,82V36L62.4,0L0,36v44.3c15.9-15.4,37.6-24.8,61.5-24.8C86.3,55.5,108.7,65.6,124.8,82z"/>
		</g>
		<g>
			<path class="st0" d="M62.4,144l62.4-36V82c-16.1-16.4-38.5-26.6-63.2-26.6c-23.9,0-45.5,9.5-61.5,24.8V108L62.4,144z"/>
		</g>
		<path class="st1" d="M62.4,144l62.4-36V82c-16.1-16.4-38.5-26.6-63.2-26.6c-23.9,0-45.5,9.5-61.5,24.8V108L62.4,144z"/>
	</g>
	<g>
		<g>
			<path class="st2" d="M54.4,44c0,1.1,0.1,1.9,0.2,2.3h-1.2c-0.1-0.3-0.2-0.8-0.2-1.8c-0.4,0.9-1.5,2.1-3.9,2.1c-2.8,0-4-1.8-4-3.6
				c0-2.6,2-3.8,5.6-3.8c1,0,1.8,0,2.3,0V38c0-1.2-0.4-2.8-3.1-2.8c-2.4,0-2.8,1.3-3,2.3h-1.2c0.1-1.3,1-3.4,4.3-3.4
				c2.7,0,4.3,1.2,4.3,3.8L54.4,44L54.4,44z M53.2,40.2c-0.5,0-1.6,0-2.4,0c-2.7,0-4.3,0.7-4.3,2.8c0,1.5,1.1,2.5,2.8,2.5
				c3.4,0,3.9-2.3,3.9-4.9V40.2z"/>
			<path class="st2" d="M67.4,42.8c0,1.2,0,3,0,3.5h-1.2c0-0.3-0.1-1.1-0.1-2.1c-0.5,1.4-1.7,2.4-3.9,2.4c-1.7,0-3.9-0.7-3.9-4.3
				v-7.9h1.2V42c0,1.8,0.6,3.5,2.9,3.5c2.7,0,3.7-1.5,3.7-4.9v-6.2h1.3V42.8z"/>
			<path class="st2" d="M72.5,40.5c1.1-1.2,4.5-4.6,6.1-6.2h1.5l-4.8,4.8l5.4,7.2h-1.5l-4.7-6.5l-2,1.9v4.5h-1.2V28.6h1.2V40.5z"/>
		</g>
	</g>
</g>
<g id="Layer_2">
	<path class="st3" d="M64.3,83.1l0.8-0.6c-0.6-2-12.2-9.6-14.2-10.4c-2-0.9-6.3-2.4-6.8-1.9s18.7,13.2,18.7,13.2L64.3,83.1z"/>
	<g>
		<path class="st3" d="M85.5,89.9c-0.5-0.1-0.9-0.1-1.5-0.2c0.4-0.8,9.8-16.8,10.3-17.3c1.3,1.7-1.8,12.5-8.1,16.7
			C85.9,89.2,86,89.7,85.5,89.9z"/>
		<path class="st4" d="M46.6,110.8c1.1-1.2,2.2-2.3,3.3-3.5c0.7,0.8,1.5,0.6,2.3,0.1c0.5-0.3,1.2-0.8,1.6-0.2c1,1.5,1.9,1.2,3,0.2
			c0.2-0.2,0.6,0,0.9,0c1.5-0.2,3.1-0.1,3.8-2c0.6-1.7,2-3,2.4-4.9c0.5-2.4-0.2-4.6-2-6.2c-1.2-1.1-2.8-1.4-4-2.5
			c4.6-3,8.2-7.3,12.4-10.7c1.5-1.2,1.9-3.3,2.1-5.2c0.1-1.4,0.4-2.8-0.4-4.1c-0.4-0.7,0.4-0.7,0.8-0.9c2.5-1,5-2.1,7.1-3.9
			c0.2-0.1,0.5-0.2,0.5-0.3c0.8-3.2,4-3.7,6.2-5.4c0.3-0.3,0.8-0.5,0.6-0.9c1.5-0.5,2.7-1.2,3.9-1.9c0.3,0.6,0.8,0.4,1.3,0.7
			c0.3,0.1,0.7,0.2,0.6,0.6c-0.6,1.7,0.4,1.4,1.4,1.1c0.4-0.1,0.7,0.2,1,0.4c0.6,0.3,1.6,0.4,1.8-0.1c0.3-0.9,1.1-1.5,1.4-2.4
			c0-0.1-0.2-0.4-0.4-0.5c-1.3-0.8-0.3-1,0.3-1.5c0.9-0.6,1.7,0.1,2.7-0.2c2.7-0.8,5.4-1.3,8.1-2c0.6-0.2,1.1,0,2,0.4
			c-3.5,1.1-6.9,1.1-9.8,2.7c0.4,0.9,1.3,0.2,1.8,0.7c-0.5,0.5-1,0.9-1.7,1.1c-0.4,0.1-1,0.1-1.1,0.6c-0.2,0.7,0.9,0.2,0.9,0.9
			c-0.9,0.5-1.9,1.1-3,1.7c1.3,0.3,2.4-0.6,3.6,0.3c-1.4,0.2-2.6,0.4-3.7,0.8c-0.4,0.1-1,0.2-0.7-0.5c0.4-1.3-0.5-1.1-1.1-1
			c-1.2,0.2-2.3,0.8-3.3,1.2c0.1,0.6,0.8,0.1,0.7,0.6c-0.4,0.7-1.5,0.3-1.5,1.2c0,0.6,0.9,0.1,1.2,0.5c-0.5,0.5-1.1,0.4-1.7,0.5
			c-1.7,0.3-1.7,0.4-0.7,1.8c-0.5,0.3-1.4-0.2-1.7,0.4c0.1,0.7,0.9,0.2,0.8,1c-1,0-2,0-3,0c0.5,0.5,1.2,0.3,1.6,0.8
			c-0.6,0.3-1.2,0.7-1.9,0.9c-0.7,0.3-1.1,0.8-1.2,1.4c-0.1,0.7,0.8,0.5,1.2,0.8c0.2,0.2,0.4,0.3,0.8,0.5c-1.2,0.1-1.8,0.3-1.2,1.5
			c0.4,0.7,0.2,2.2-0.3,2.9c-0.5,0.7-0.7,1.6-0.9,2.4c-0.5,1.8-2.1,3.2-3.3,4.2c-2.2,1.8-3.9,4.4-7.1,4.9c-1.1,0.2-2.6,1-2.6,2
			c0,1.3,1.7,1.4,2.7,1.7c-1.4,0.8-0.8,1.5,0.1,2.3c1.2,1.1,1.5,3,3.2,3.6c0.1,0,0,0.2,0.1,0.3c1.3,1.2-1,1.8-0.5,3.1
			c0.2,0.4-1.1,0.4-1.6,1c2,1.4,3.8,2.7,6.6,2.2c2.2-0.4,4.1-1.3,6.1-1.9c1.4,0,2.8-0.1,4.1,0.4c-3,1.9-6.1,3.6-9.5,4.6
			c-5.4,1.5-10.9,2.4-16.4,3s-11,0.3-16.5,0C49.4,111.6,47.9,111.4,46.6,110.8z"/>
		<path class="st5" d="M23.6,100.4c1,0.3,1.7,1.2,2.7,1.3c0.4,0.1,1.1,0.1,1.1-0.5c0-0.5-0.6-0.5-1-0.6
			C25.5,100.6,24.5,100.6,23.6,100.4z M17.2,99.1c-0.5,0.5-0.4,1-0.8,1.7c-0.9-1.1,0.1-2,0.2-2.9c0.3-0.1,0.6-0.1,0.9-0.2
			c0.1,0.1,0.3,0.1,0.4,0.2c3,0,5.9-0.6,8.7-1.2c1.1-0.3,2.4,0.4,3.6-0.5c-1.5-0.5-2.8,0-4.4-0.3"/>
		<path class="st5" d="M75.1,93.3c-1.1-0.4-2.8-0.4-2.7-1.7c0-1,1.5-1.8,2.6-2c3.2-0.5,4.9-3.1,7.1-4.9c1.3-1,2.8-2.4,3.3-4.2
			c0.3-0.8,0.4-1.7,0.9-2.4c0.5-0.7,0.7-2.2,0.3-2.9c-0.6-1.2,0.1-1.4,1.2-1.5c-0.4-0.2-0.6-0.3-0.8-0.5c-0.4-0.3-1.3-0.1-1.2-0.8
			c0.1-0.6,0.6-1.1,1.2-1.4s1.2-0.6,1.9-0.9c-0.4-0.6-1.1-0.3-1.6-0.8c1,0,2,0,3,0c0.1-0.8-0.8-0.3-0.8-1c0.4-0.6,1.2,0,1.7-0.4
			c-1.1-1.3-1-1.5,0.7-1.8c0.6-0.1,1.2,0,1.7-0.5c-0.3-0.4-1.2,0.1-1.2-0.5c0-0.9,1.1-0.4,1.5-1.2c0-0.4-0.7,0.1-0.7-0.6
			c1-0.4,2.1-1.1,3.3-1.2c0.6-0.1,1.6-0.2,1.1,1c-0.3,0.8,0.4,0.7,0.7,0.5c1.1-0.4,2.2-0.6,3.7-0.8c-1.2-0.9-2.3,0-3.6-0.3
			c1.1-0.6,2.1-1.2,3-1.7c0-0.6-1.1-0.2-0.9-0.9c0.1-0.5,0.7-0.4,1.1-0.6c0.6-0.2,1.1-0.6,1.7-1.1c-0.5-0.5-1.4,0.2-1.8-0.7
			c2.9-1.6,6.3-1.6,9.8-2.7c-0.9-0.4-1.4-0.5-2-0.4c-2.7,0.7-5.4,1.3-8.1,2c-0.9,0.3-1.8-0.4-2.7,0.2c-0.6,0.4-1.6,0.7-0.3,1.5
			c0.2,0.1,0.4,0.4,0.4,0.5c-0.3,0.9-1,1.5-1.4,2.4c-0.2,0.5-1.2,0.4-1.8,0.1c-0.3-0.2-0.6-0.5-1-0.4c-1,0.3-2,0.6-1.4-1.1
			c0.1-0.4-0.3-0.4-0.6-0.6c-0.5-0.2-1.1-0.1-1.4-0.7c6.9-3.8,14-7.3,21.7-9.1c0.9-0.2,1.8-0.4,2.7-0.4c0.7,0.5-0.8,0.6-0.6,1.2
			c0.4,0.8,0.6,0.2,1.3,0.4c0.2,0.2,0.1,0.4-0.1,0.5c-0.5,0.4-1.5,0.5-1.4,1.2c0.1,0.9,1.7,0.1,1.8,0.7c0.1,0.6-1.3,0.9-2,1.3
			c-0.4,0.2-1.1,0.2-1,0.9s0.6,0.5,1.2,0.5c0.2,0,0.3,0.2,0.3,0.2c0,0.1,0.1,0.3-0.1,0.4c-0.6,0.4-0.9,0.7-1.6,1
			c-0.2,0.1-0.4,0.4-0.4,0.4c1.1,1.4-0.6,1.3-1,2c-0.8,1.3-1.6,2.5-3.2,3.1c-0.1,2.3-2.4,2.6-3.6,3.8c-1.8,1.9-4.2,2.9-6.5,4
			c-1.3,0.6-2.7,1-4,1.7c-1.6,0.8-1.3,2.6-1.8,4c-1.6,4.3-3.1,8.6-7,11.4c-0.2,0.1-0.3,0.4-0.4,0.7c-0.5,0.5-1.4,0.7-1.8,1.5
			c0.6,0.1,1.1,0.1,1.5,0.2c-0.2,0.7,0.1,1.5,0.1,2.2c0,0.5,0.4,1.3,1.4,1.6c2.3,0.6,4.5,1.4,6.7,2.3c4.6,2,9.4,2.1,14.2,1.9
			c0.7,0,1.6-0.3,2.1,0.4c0.8,1,0.6,1.8-0.7,2.4c-2.8,1.4-6,1.8-8.8,3.2c-2.5,1.2-4.9,0.1-7.4,0.4c-1.3-0.5-2.7-0.5-4.1-0.4
			c0.7-0.5,1.4-1.1,2.1-1.6c0.7-0.2,0.7,0.7,1.3,0.7c0.3,0,0.6,0.5,1,0.2c0.5-0.4-0.4-0.7,0-1.1c4.7,0.7,9-0.7,13.3-2.1
			c-1.6,0.6-3.3-0.2-4.9,0.1c-2.6,0.5-5.2,0.3-7.8,0.7c-0.9-1.4-2.3-2.1-3.8-2.3c-0.7-0.1-1.3-0.4-1.4-1.1c-0.2-1.1-1-1.3-1.8-1.6
			c-1.1-0.4-2.1-0.5-3.3-0.3c-2.4,0.4-4.6-1-6.8-1.5c-0.1-0.2-0.3-0.2-0.4-0.1C76.1,93.5,75.6,93.4,75.1,93.3z"/>
		<path class="st5" d="M14.3,98.1C13.5,100,14,102,14,104"/>
		<path class="st5" d="M22.6,96.7"/>
		<path class="st5" d="M14.9,97.7c-1.9,0.8-3.8,2.3-4.6,4.4c-0.7,1.7-0.1,1.7,1.2,1.7c0.8,0,1.7,0.2,2.5,0.3l1.9-0.2l0,0
			c3.7-0.5,7.3,0,10.6,1.7c5.1,2.6,10.5,4.3,16.2,5.3c1.3,0.2,2.6,0.4,3.9-0.1c1.1-1.2,2.2-2.3,3.3-3.5c2.9-2.9,4.3-6.5,4.6-10.6
			c0.1-1.6,1.1-3,1.8-4.4c0.2-0.5,1-0.7,1.7-0.5c4.6-3,8.2-7.3,12.4-10.7c1.5-1.2,1.9-3.3,2.1-5.2c0.1-1.4,0.4-2.8-0.4-4.1
			c-0.4-0.7,0.4-0.7,0.8-0.9c2.5-1,5-2.1,7.1-3.9c0.2-0.1,0.5-0.2,0.5-0.3c0.8-3.2,4.1-3.6,6.2-5.3c0.3-0.2,3.8-2.2,4.7-2.5
			c0.2-0.1-0.3-0.3-0.4-0.4c-2.1,0.9-7.7,4-9.7,5c-3.1,1.6-5.7,4-8.7,5.8c-1.4,0.9-2.3,2.3-2.6,4.2c-0.6,3.7-3.5,6.2-5.7,9
			c-0.5,0.7-1.2,0.4-1.8-0.2C61,81,59.6,79.6,58,78.4c-4.1-3.1-8.1-6.3-13.1-7.9c-2-0.6-3.6-2.1-4.8-3.9c-2.5-4-4.8-8.2-8.6-11.3
			c-0.9-0.8-2.2-1.5-2.8-2.5c-0.9-1.6-2.6-2.4-3.6-3.9c-0.6-0.8-2.3-1.2-3-2.5c-0.1-0.1-0.6-0.2-0.9-0.1c-0.7,0.2-1.1-0.1-1.4-0.7
			c-1.1-1.8-1.1-1.8-2.6-0.4c-0.1-0.2-0.3-0.5-0.4-0.7c-1-1.9-1.1-1.9-2.2-0.1c-0.4,0.6-0.7,0.5-1.1,0c-0.3-0.4-0.4-1-1.1-0.8
			s-0.7,0.9-0.7,1.5c0.1,3.6,0.6,7.2,2,10.6c1.5,3.6,3.5,6.9,4.9,10.5c1.5,3.6,4.3,5.9,7.8,7.6c1.2,0.6,2.4,1,3.5,1.6
			c4.5,2.3,8.8,4.6,11.8,8.6c1.4,1.8,1.2,3.5-0.4,5c-1.5,1.4-3.2,2.2-5.3,2.5c-2.2,0.3-4.4,0.3-6.4,1.4c-2.3,1.1-3.8,3-4.6,3.2
			c-0.7,0.2-7.5,2-8.4,1.9c-0.9-0.2-1.3,0.7-1.3,0.7l-1-0.5"/>
		<path class="st5" d="M25.9,95.9"/>
		<path class="st3" d="M22.6,97c1.4,0.6,2.4-0.5,3.9-0.2c1.1-0.3,1.9-0.6,3.1-0.8c-1.5-0.5-2.2,0.5-3.7,0.4
			C25.6,96.4,22.6,97,22.6,97z"/>
		<path class="st5" d="M15.9,97.6c0,1.5-0.8,3.4-0.5,5.2c-1.2-1.8-1-3.5-0.6-5C15.1,97.6,15.8,97.6,15.9,97.6z"/>
		<path class="st3" d="M58,91.9c1.1,1.1,2.7,1.5,4,2.5c1.8,1.6,2.5,3.8,2,6.2c-0.4,1.9-1.8,3.2-2.4,4.9c-0.7,1.9-2.3,1.8-3.8,2
			c-0.3,0-0.7-0.2-0.9,0c-1.1,1-2,1.3-3-0.2c-0.4-0.6-1.1-0.1-1.6,0.2c-0.8,0.5-1.6,0.7-2.3-0.1c2.9-2.9,4.3-6.5,4.6-10.6
			c0.1-1.6,1.1-3,1.8-4.4C56.5,91.9,57.3,91.6,58,91.9z"/>
		<path class="st3" d="M91.2,102.1c-0.7,0.5-1.4,1.1-2.1,1.6c-2,0.6-3.9,1.5-6.1,1.9c-2.8,0.5-4.6-0.8-6.6-2.2
			c0.5-0.6,1.7-0.6,1.6-1c-0.5-1.2,1.9-1.8,0.5-3.1c-0.1-0.1,0-0.3-0.1-0.3c-1.8-0.6-2-2.5-3.2-3.6c-0.9-0.8-1.6-1.5-0.1-2.3
			c0.5,0.1,1,0.2,1.5,0.3c0.1,0.2,0.3,0.2,0.4,0.1c2.3,0.5,4.4,1.8,6.8,1.5c1.2-0.2,2.3-0.1,3.3,0.3c0.8,0.3,1.6,0.5,1.8,1.6
			c0.1,0.7,0.7,1,1.4,1.1c1.5,0.3,2.9,1,3.8,2.3c-0.3,0.6-0.7,0.8-1.3,0.4C91.6,100.2,91,100.5,91.2,102.1z"/>
		<path class="st4" d="M91.2,102.1c-0.2-1.6,0.4-1.9,1.7-1.2c0.6,0.4,1,0.1,1.3-0.4c2.6-0.4,5.2-0.1,7.8-0.7
			c1.6-0.3,3.2,0.5,4.9-0.1c-4.4,1.4-8.7,2.9-13.3,2.1c-0.3,0.4,0.6,0.7,0,1.1c-0.4,0.3-0.7-0.2-1-0.2
			C91.9,102.8,91.9,101.9,91.2,102.1z"/>
		<path class="st4" d="M77.1,93.7c-0.2,0.1-0.3,0.1-0.4-0.1C76.8,93.5,77,93.5,77.1,93.7z"/>
		<path class="st4" d="M17.5,97.8c-1.1,4.2,7.4,1.7,9.4,3.3c-1.8,0.3-7,0-8.4,0.1c-2.2,0.1-2.8,1.1-2.4,2.7
			c-0.7,0.3-1.4,0.3-2.1,0.2c0-2-0.5-4,0.3-5.9c0.2-0.3,0.8-0.5,1-0.4c0,0.2-1.3,3.1-0.1,4.9c-0.2-1.9,0.5-4.9,0.5-5
			c0.3-0.1,0.5,0.1,0.8,0.3c-0.1,0.9-1.1,1.7-0.2,2.9C16.8,100.1,16.7,98.2,17.5,97.8"/>
		<path class="st3" d="M17.9,97.9c-0.1-0.1-0.3-0.1-0.4-0.2c1.6-0.1,5.1-0.7,5.2-0.7c0.5,0.1,3.6-0.6,3.1-0.3
			C25,97.1,18.6,98.3,17.9,97.9z"/>
	</g>
	<path class="st4" d="M30.6,97.7c-0.8-0.1-0.8-1.1-0.7-1.4c0.2-0.3,0.5-0.5,0.9-0.6s-0.2-0.2-0.6,0c-0.4,0.2-0.8,0.9-0.6,1.3
		c0.4,0.9,0.9,0.8,1.1,0.9c0.2,0,1.1-0.3,0.8-0.2C31.2,97.8,30.6,97.7,30.6,97.7z"/>
	<path class="st3" d="M31,96c0.2-0.1,0.8-0.1,1,0.4c0.2,0.5-0.4,0.7-0.5,0.6s-0.1-0.5-0.3-0.6s-0.3-0.1-0.3-0.2C31,96.1,31,96,31,96
		z"/>
	<path class="st4" d="M17.5,97.8"/>
	<path class="st4" d="M14.8,101.5c0.1,0.4,0.2,0.8,0.4,1.1"/>
	<path class="st6" d="M14.8,101.2c-0.3-1.7,0.5-3.4,0.5-3.6c-0.2-0.1-0.8,0.1-1,0.4c-0.5,1.2-0.5,2.2-0.4,3.4
		c0.1,0.4,0.6,0.1,0.6,0.1C14.6,101.6,14.8,101.4,14.8,101.2z"/>
	<path class="st6" d="M14,102.2c0,0.7,0,1.7,0.1,1.8c0.2,0.1,1,0.1,1.2,0c0-0.4-0.3-1.8-0.4-2c-0.1-0.1-0.3-0.1-0.5-0.1
		C14.2,102,14,102.1,14,102.2z"/>
</g>
</svg>
